{
  "asset": {
    "version": "2.0",
    "generator": "THREE.GLTFExporter r179dev"
  },
  "scenes": [
    {
      "name": "Scene",
      "nodes": [
        0,
        1
      ]
    }
  ],
  "scene": 0,
  "nodes": [
    {
      "matrix": [
        1,
        0,
        0,
        0,
        0,
        1,
        0,
        0,
        0,
        0,
        1,
        0,
        0.44543540318737396,
        0.0890870806374748,
        0.8908708063747479,
        1
      ],
      "name": "Directional Light",
      "extensions": {
        "KHR_lights_punctual": {
          "light": 0
        }
      }
    },
    {
      "matrix": [
        -0.9999870227905778,
        1.2184077975449932e-16,
        0.005094531424655506,
        0,
        1.2246309066493722e-16,
        1,
        1.2184077975449932e-16,
        0,
        -0.005094531424655506,
        1.2246309066493722e-16,
        -0.9999870227905778,
        0,
        0,
        0,
        0,
        1
      ],
      "name": "drone.gltf",
      "children": [
        2,
        4
      ]
    },
    {
      "matrix": [
        1,
        0,
        0,
        0,
        0,
        1,
        0,
        0,
        0,
        0,
        1,
        0,
        0.44543540318737396,
        0.0890870806374748,
        0.8908708063747479,
        1
      ],
      "name": "Directional_Light",
      "extras": {
        "name": "Directional Light"
      },
      "children": [
        3
      ],
      "extensions": {
        "KHR_lights_punctual": {
          "light": 1
        }
      }
    },
    {
      "matrix": [
        1,
        0,
        0,
        0,
        0,
        1,
        0,
        0,
        0,
        0,
        1,
        0,
        0,
        0,
        -1,
        1
      ]
    },
    {
      "name": "Dronegltf",
      "extras": {
        "name": "Drone.gltf"
      },
      "children": [
        5,
        9
      ]
    },
    {
      "name": "scenegltf",
      "extras": {
        "name": "scene.gltf"
      },
      "children": [
        6,
        7
      ]
    },
    {
      "name": "Group",
      "extras": {
        "name": "Group"
      }
    },
    {
      "name": "Dronegltf_1",
      "extras": {
        "name": "Drone.gltf"
      },
      "children": [
        8
      ]
    },
    {
      "name": "base_basic_shadedglb",
      "extras": {
        "name": "base_basic_shaded.glb"
      }
    },
    {
      "matrix": [
        -1,
        0,
        -1.2246467991473532e-16,
        0,
        0,
        1,
        0,
        0,
        1.2246467991473532e-16,
        0,
        -1,
        0,
        0.4461999257982092,
        -0.01794102389131702,
        0.8896485836303459,
        1
      ],
      "name": "dronegltf",
      "extras": {
        "name": "drone.gltf"
      },
      "children": [
        10
      ]
    },
    {
      "name": "scenegltf_1",
      "extras": {
        "name": "scene.gltf"
      },
      "children": [
        11,
        16,
        17
      ]
    },
    {
      "matrix": [
        1,
        0,
        0,
        0,
        0,
        1,
        0,
        0,
        0,
        0,
        1,
        0,
        0.44543540318737396,
        0.0890870806374748,
        0.8908708063747479,
        1
      ],
      "name": "Directional_Light_2",
      "extras": {
        "name": "Directional Light"
      },
      "children": [
        12,
        13,
        14,
        15
      ],
      "extensions": {
        "KHR_lights_punctual": {
          "light": 2
        }
      }
    },
    {
      "matrix": [
        1,
        0,
        0,
        0,
        0,
        1,
        0,
        0,
        0,
        0,
        1,
        0,
        0,
        0,
        -1,
        1
      ]
    },
    {
      "matrix": [
        1,
        0,
        0,
        0,
        0,
        1,
        0,
        0,
        0,
        0,
        1,
        0,
        0,
        0,
        -1,
        1
      ]
    },
    {
      "matrix": [
        1,
        0,
        0,
        0,
        0,
        1,
        0,
        0,
        0,
        0,
        1,
        0,
        0,
        0,
        -1,
        1
      ]
    },
    {
      "matrix": [
        1,
        0,
        0,
        0,
        0,
        1,
        0,
        0,
        0,
        0,
        1,
        0,
        0,
        0,
        -1,
        1
      ]
    },
    {
      "name": "Group_1",
      "extras": {
        "name": "Group"
      }
    },
    {
      "name": "Dronegltf_1",
      "extras": {
        "name": "Drone.gltf"
      },
      "children": [
        18
      ]
    },
    {
      "name": "base_basic_shadedglb_1",
      "extras": {
        "name": "base_basic_shaded.glb"
      },
      "children": [
        19
      ]
    },
    {
      "matrix": [
        -0.9999999999999909,
        1.4343353327283417e-7,
        -4.389053531250923e-14,
        0,
        1.2246467202362698e-16,
        -3.0514531479397533e-7,
        -0.9999999999999536,
        0,
        -1.4343353327284087e-7,
        -0.9999999999999443,
        3.05145314571931e-7,
        0,
        0.42652895320208406,
        0.1947752856003575,
        1.6734361837889005,
        1
      ],
      "name": "model",
      "extras": {
        "name": "model"
      },
      "mesh": 0
    }
  ],
  "extensions": {
    "KHR_lights_punctual": {
      "lights": [
        {
          "name": "Directional Light",
          "color": [
            1,
            1,
            1
          ],
          "intensity": 2,
          "type": "directional"
        },
        {
          "name": "Directional_Light",
          "color": [
            1,
            1,
            1
          ],
          "intensity": 2,
          "type": "directional"
        },
        {
          "name": "Directional_Light_2",
          "color": [
            1,
            1,
            1
          ],
          "intensity": 2,
          "type": "directional"
        }
      ]
    }
  },
  "bufferViews": [
    {
      "buffer": 0,
      "byteOffset": 0,
      "byteLength": 592872,
      "target": 34962,
      "byteStride": 12
    },
    {
      "buffer": 0,
      "byteOffset": 592872,
      "byteLength": 592872,
      "target": 34962,
      "byteStride": 12
    },
    {
      "buffer": 0,
      "byteOffset": 1185744,
      "byteLength": 395248,
      "target": 34962,
      "byteStride": 8
    },
    {
      "buffer": 0,
      "byteOffset": 1580992,
      "byteLength": 352800,
      "target": 34963
    }
  ],
  "buffers": [
    {
      "byteLength": 1933792,
      "uri": "data:application/octet-stream;base64,"
    }
  ],
  "accessors": [
    {
      "bufferView": 0,
      "componentType": 5126,
      "count": 49406,
      "max": [
        0.7791760563850403,
        1.9006524085998535,
        0.10292389988899231
      ],
      "min": [
        -0.779478132724762,
        -0.00002983749254781287,
        -0.10289222002029419
      ],
      "type": "VEC3"
    },
    {
      "bufferView": 1,
      "componentType": 5126,
      "count": 49406,
      "max": [
        0.9999996423721313,
        0.9999942779541016,
        0.9999996423721313
      ],
      "min": [
        -0.9999990463256836,
        -0.9999927282333374,
        -0.999996542930603
      ],
      "type": "VEC3"
    },
    {
      "bufferView": 2,
      "componentType": 5126,
      "count": 49406,
      "max": [
        1,
        1
      ],
      "min": [
        0,
        5.960464477539063e-8
      ],
      "type": "VEC2"
    },
    {
      "bufferView": 3,
      "componentType": 5123,
      "count": 176400,
      "max": [
        49405
      ],
      "min": [
        0
      ],
      "type": "SCALAR"
    }
  ],
  "materials": [
    {
      "pbrMetallicRoughness": {
        "baseColorFactor": [
          0.0013742446899414062,
          0.0220794677734375,
          0.8134765625,
          1
        ],
        "metallicFactor": 0,
        "roughnessFactor": 1
      },
      "emissiveFactor": [
        0.001373999984934926,
        0.022079000249505043,
        0.8134769797325134
      ],
      "doubleSided": true,
      "name": "model"
    }
  ],
  "meshes": [
    {
      "primitives": [
        {
          "mode": 4,
          "attributes": {
            "POSITION": 0,
            "NORMAL": 1,
            "TEXCOORD_0": 2
          },
          "indices": 3,
          "material": 0
        }
      ]
    }
  ],
  "extensionsUsed": [
    "KHR_lights_punctual"
  ]
}